# Blender 4.3.2
# www.blender.org
mtllib rock.mtl
o Sphere
v 0.000545 0.672653 -0.678658
v 0.208605 0.843243 -0.284880
v 0.393988 0.665336 -0.539656
v 0.540110 0.380789 -0.743789
v 0.541844 0.002274 -0.743141
v 0.531574 -0.366346 -0.726471
v 0.387768 -0.650108 -0.531896
v 0.209936 -0.842824 -0.286309
v 0.349628 0.884770 -0.116400
v 0.634767 0.665336 -0.208252
v 0.878662 0.382683 -0.285494
v 0.936241 0.000009 -0.304808
v 0.848551 -0.362371 -0.275492
v 0.616034 -0.641491 -0.201959
v 0.349628 -0.890044 -0.116400
v 0.352465 0.890086 0.113662
v 0.625832 0.656055 0.199518
v 0.853076 0.375099 0.275413
v 0.881907 0.002470 0.281237
v 0.851484 -0.372709 0.271946
v 0.648042 -0.672352 0.209701
v 0.358200 -0.909612 0.115871
v 0.227006 0.932348 0.311420
v 0.387768 0.655047 0.523996
v 0.537431 0.378661 0.738839
v 0.593091 0.000231 0.815293
v 0.526596 -0.372709 0.719116
v 0.386140 -0.648447 0.523933
v 0.213887 -0.859371 0.285440
v 0.003978 0.888645 0.364793
v 0.000000 0.707107 0.707107
v 0.003979 0.371157 0.882281
v 0.000366 -0.002595 0.962285
v 0.004180 -0.366346 0.896680
v 0.000388 -0.716572 0.715864
v 0.003700 -0.847911 0.349677
v -0.222348 0.914079 0.305677
v -0.393442 0.681368 0.545875
v -0.550143 0.388247 0.756748
v -0.538264 0.002470 0.742679
v -0.499050 -0.352342 0.689106
v -0.389955 -0.665110 0.541925
v -0.221601 -0.909612 0.304259
v -0.347928 0.898172 0.113774
v -0.633403 0.675201 0.206847
v -0.825130 0.365909 0.269085
v -0.915371 0.005230 0.298148
v -0.855198 -0.375008 0.274239
v -0.681384 -0.716572 0.220527
v -0.355378 -0.906311 0.111873
v 0.000042 -0.963160 -0.002812
v -0.362526 0.919383 -0.117635
v -0.641596 0.672653 -0.212115
v -0.886432 0.386326 -0.288978
v -0.925694 -0.002362 -0.304679
v -0.843932 -0.370213 -0.277036
v -0.665133 -0.699494 -0.216790
v -0.355378 -0.906311 -0.119548
v 0.004537 0.929878 -0.004021
v -0.201574 0.847372 -0.286309
v -0.388402 0.671901 -0.539750
v -0.495983 0.354327 -0.690205
v -0.571952 -0.002362 -0.791563
v -0.522563 -0.370971 -0.724405
v -0.394736 -0.674517 -0.547014
v -0.221601 -0.909612 -0.305379
v 0.000366 0.889099 -0.372230
v 0.004321 0.373004 -0.888861
v 0.004321 0.005317 -0.961999
v 0.004536 -0.352342 -0.860774
v 0.000186 -0.699494 -0.700172
v 0.000388 -0.936334 -0.388955
vn 0.4028 -0.7824 -0.4751
vn 0.3087 -0.1566 -0.9382
vn 0.2332 0.6017 -0.7639
vn 0.2573 0.9601 -0.1093
vn 0.4319 -0.8998 -0.0621
vn 0.2863 -0.5202 -0.8046
vn 0.3194 0.0924 -0.9431
vn 0.2599 0.8284 -0.4962
vn 0.0880 -0.9387 -0.3333
vn 0.6386 -0.6344 -0.4356
vn 0.7720 0.0756 -0.6311
vn 0.4137 0.8253 -0.3845
vn 0.4722 -0.7815 -0.4079
vn 0.7731 -0.1425 -0.6181
vn 0.6143 0.6467 -0.4522
vn 0.0382 0.9623 -0.2691
vn 0.9913 0.1122 0.0696
vn 0.6304 0.7762 0.0109
vn 0.6554 -0.7487 -0.0999
vn 0.9867 -0.1568 0.0437
vn 0.7667 0.6408 0.0385
vn 0.1217 0.9923 -0.0244
vn 0.1761 -0.9803 -0.0891
vn 0.7970 -0.6014 -0.0549
vn 0.4171 -0.7782 0.4695
vn 0.8339 -0.1815 0.5212
vn 0.6234 0.6490 0.4360
vn 0.1509 0.9819 -0.1141
vn 0.0380 -0.9488 0.3135
vn 0.6256 -0.5980 0.5009
vn 0.8455 0.1512 0.5121
vn 0.5975 0.7169 0.3593
vn 0.2998 0.5649 0.7688
vn -0.1659 0.9801 0.1093
vn 0.0430 -0.9497 0.3101
vn 0.3484 -0.5404 0.7659
vn 0.2421 0.2136 0.9464
vn 0.2349 0.7806 0.5791
vn 0.2626 -0.8693 0.4187
vn 0.2714 -0.2284 0.9350
vn 0.1944 -0.9329 0.3030
vn -0.3772 -0.4581 0.8049
vn -0.2988 0.0793 0.9510
vn -0.1891 0.8262 0.5307
vn -0.1598 -0.8578 0.4885
vn -0.3763 -0.1735 0.9101
vn -0.2466 0.5497 0.7982
vn 0.0823 0.9904 0.1109
vn -0.5323 0.7778 0.3342
vn -0.4153 -0.8073 0.4194
vn -0.7479 -0.1688 0.6420
vn -0.6949 0.5890 0.4126
vn -0.0961 0.9952 -0.0196
vn -0.1336 -0.9881 0.0759
vn -0.6412 -0.4647 0.6107
vn -0.8165 0.0971 0.5691
vn -0.5294 -0.8477 -0.0345
vn -0.9825 -0.1864 -0.0004
vn -0.8055 0.5887 0.0681
vn -0.0577 0.9938 0.0947
vn -0.1579 -0.9874 -0.0000
vn -0.8845 -0.4653 -0.0349
vn -0.9833 0.1710 0.0626
vn -0.6390 0.7679 0.0444
vn 0.0752 0.9410 -0.3300
vn -0.1325 -0.9881 -0.0778
vn -0.6705 -0.5226 -0.5266
vn -0.7448 0.2144 -0.6319
vn -0.3942 0.8031 -0.4467
vn -0.4567 -0.7990 -0.3912
vn -0.7917 -0.2146 -0.5719
vn -0.6059 0.5646 -0.5605
vn -0.2653 -0.4836 -0.8341
vn -0.3193 0.2535 -0.9131
vn -0.2493 0.8304 -0.4982
vn -0.2833 -0.7715 -0.5697
vn -0.2552 -0.2349 -0.9379
vn -0.3135 0.5178 -0.7960
vn -0.2435 0.9643 -0.1040
vn -0.1447 -0.9871 -0.0687
vt 0.700000 0.125000
vt 0.700000 0.250000
vt 0.600000 0.250000
vt 0.600000 0.125000
vt 0.700000 0.375000
vt 0.700000 0.500000
vt 0.600000 0.500000
vt 0.600000 0.375000
vt 0.700000 0.625000
vt 0.700000 0.750000
vt 0.600000 0.750000
vt 0.600000 0.625000
vt 0.700000 0.875000
vt 0.650000 1.000000
vt 0.600000 0.875000
vt 0.650000 0.000000
vt 0.550000 0.000000
vt 0.500000 0.125000
vt 0.500000 0.375000
vt 0.500000 0.250000
vt 0.500000 0.625000
vt 0.500000 0.500000
vt 0.500000 0.875000
vt 0.500000 0.750000
vt 0.550000 1.000000
vt 0.400000 0.625000
vt 0.400000 0.500000
vt 0.400000 0.875000
vt 0.400000 0.750000
vt 0.400000 0.250000
vt 0.400000 0.125000
vt 0.400000 0.375000
vt 0.450000 1.000000
vt 0.450000 0.000000
vt 0.300000 0.250000
vt 0.300000 0.125000
vt 0.300000 0.500000
vt 0.300000 0.375000
vt 0.300000 0.750000
vt 0.300000 0.625000
vt 0.350000 1.000000
vt 0.300000 0.875000
vt 0.350000 0.000000
vt 0.200000 0.750000
vt 0.200000 0.625000
vt 0.250000 1.000000
vt 0.200000 0.875000
vt 0.250000 0.000000
vt 0.200000 0.125000
vt 0.200000 0.375000
vt 0.200000 0.250000
vt 0.200000 0.500000
vt 0.150000 0.000000
vt 0.100000 0.125000
vt 0.100000 0.375000
vt 0.100000 0.250000
vt 0.100000 0.625000
vt 0.100000 0.500000
vt 0.100000 0.875000
vt 0.100000 0.750000
vt 0.150000 1.000000
vt 0.000000 0.875000
vt 0.000000 0.750000
vt 0.000000 0.250000
vt 0.000000 0.125000
vt 0.000000 0.500000
vt 0.000000 0.375000
vt 0.000000 0.625000
vt 0.050000 1.000000
vt 0.050000 0.000000
vt 1.000000 0.125000
vt 1.000000 0.250000
vt 0.900000 0.250000
vt 0.900000 0.125000
vt 1.000000 0.375000
vt 1.000000 0.500000
vt 0.900000 0.500000
vt 0.900000 0.375000
vt 1.000000 0.625000
vt 1.000000 0.750000
vt 0.900000 0.750000
vt 0.900000 0.625000
vt 1.000000 0.875000
vt 0.950000 1.000000
vt 0.900000 0.875000
vt 0.950000 0.000000
vt 0.850000 1.000000
vt 0.800000 0.875000
vt 0.850000 0.000000
vt 0.800000 0.125000
vt 0.800000 0.375000
vt 0.800000 0.250000
vt 0.800000 0.625000
vt 0.800000 0.500000
vt 0.800000 0.750000
vt 0.750000 1.000000
vt 0.750000 0.000000
s 0
usemtl Rock
f 72/1/1 71/2/1 7/3/1 8/4/1
f 70/5/2 69/6/2 5/7/2 6/8/2
f 68/9/3 1/10/3 3/11/3 4/12/3
f 67/13/4 59/14/4 2/15/4
f 51/16/5 72/1/5 8/4/5
f 71/2/6 70/5/6 6/8/6 7/3/6
f 69/6/7 68/9/7 4/12/7 5/7/7
f 1/10/8 67/13/8 2/15/8 3/11/8
f 51/17/9 8/4/9 15/18/9
f 7/3/10 6/8/10 13/19/10 14/20/10
f 5/7/11 4/12/11 11/21/11 12/22/11
f 3/11/12 2/15/12 9/23/12 10/24/12
f 8/4/13 7/3/13 14/20/13 15/18/13
f 6/8/14 5/7/14 12/22/14 13/19/14
f 4/12/15 3/11/15 10/24/15 11/21/15
f 2/15/16 59/25/16 9/23/16
f 12/22/17 11/21/17 18/26/17 19/27/17
f 10/24/18 9/23/18 16/28/18 17/29/18
f 15/18/19 14/20/19 21/30/19 22/31/19
f 13/19/20 12/22/20 19/27/20 20/32/20
f 11/21/21 10/24/21 17/29/21 18/26/21
f 9/23/22 59/33/22 16/28/22
f 51/34/23 15/18/23 22/31/23
f 14/20/24 13/19/24 20/32/24 21/30/24
f 22/31/25 21/30/25 28/35/25 29/36/25
f 20/32/26 19/27/26 26/37/26 27/38/26
f 18/26/27 17/29/27 24/39/27 25/40/27
f 16/28/28 59/41/28 23/42/28
f 51/43/29 22/31/29 29/36/29
f 21/30/30 20/32/30 27/38/30 28/35/30
f 19/27/31 18/26/31 25/40/31 26/37/31
f 17/29/32 16/28/32 23/42/32 24/39/32
f 25/40/33 24/39/33 31/44/33 32/45/33
f 23/42/34 59/46/34 30/47/34
f 51/48/35 29/36/35 36/49/35
f 28/35/36 27/38/36 34/50/36 35/51/36
f 26/37/37 25/40/37 32/45/37 33/52/37
f 24/39/38 23/42/38 30/47/38 31/44/38
f 29/36/39 28/35/39 35/51/39 36/49/39
f 27/38/40 26/37/40 33/52/40 34/50/40
f 51/53/41 36/49/41 43/54/41
f 35/51/42 34/50/42 41/55/42 42/56/42
f 33/52/43 32/45/43 39/57/43 40/58/43
f 31/44/44 30/47/44 37/59/44 38/60/44
f 36/49/45 35/51/45 42/56/45 43/54/45
f 34/50/46 33/52/46 40/58/46 41/55/46
f 32/45/47 31/44/47 38/60/47 39/57/47
f 30/47/48 59/61/48 37/59/48
f 38/60/49 37/59/49 44/62/49 45/63/49
f 43/54/50 42/56/50 49/64/50 50/65/50
f 41/55/51 40/58/51 47/66/51 48/67/51
f 39/57/52 38/60/52 45/63/52 46/68/52
f 37/59/53 59/69/53 44/62/53
f 51/70/54 43/54/54 50/65/54
f 42/56/55 41/55/55 48/67/55 49/64/55
f 40/58/56 39/57/56 46/68/56 47/66/56
f 50/71/57 49/72/57 57/73/57 58/74/57
f 48/75/58 47/76/58 55/77/58 56/78/58
f 46/79/59 45/80/59 53/81/59 54/82/59
f 44/83/60 59/84/60 52/85/60
f 51/86/61 50/71/61 58/74/61
f 49/72/62 48/75/62 56/78/62 57/73/62
f 47/76/63 46/79/63 54/82/63 55/77/63
f 45/80/64 44/83/64 52/85/64 53/81/64
f 52/85/65 59/87/65 60/88/65
f 51/89/66 58/74/66 66/90/66
f 57/73/67 56/78/67 64/91/67 65/92/67
f 55/77/68 54/82/68 62/93/68 63/94/68
f 53/81/69 52/85/69 60/88/69 61/95/69
f 58/74/70 57/73/70 65/92/70 66/90/70
f 56/78/71 55/77/71 63/94/71 64/91/71
f 54/82/72 53/81/72 61/95/72 62/93/72
f 65/92/73 64/91/73 70/5/73 71/2/73
f 63/94/74 62/93/74 68/9/74 69/6/74
f 61/95/75 60/88/75 67/13/75 1/10/75
f 66/90/76 65/92/76 71/2/76 72/1/76
f 64/91/77 63/94/77 69/6/77 70/5/77
f 62/93/78 61/95/78 1/10/78 68/9/78
f 60/88/79 59/96/79 67/13/79
f 51/97/80 66/90/80 72/1/80
