# Blender 4.3.2
# www.blender.org
mtllib rockICO.mtl
o Icosphere
v -0.000491 -1.007547 -0.001253
v 0.701873 -0.436899 0.513657
v -0.285016 -0.459211 0.874314
v -0.838510 -0.417933 -0.002143
v -0.278731 -0.451062 -0.857603
v 0.686980 -0.426050 -0.503492
v 0.264700 0.431013 0.817233
v -0.681661 0.420109 0.491341
v -0.693669 0.425891 -0.501179
v 0.264461 0.437926 -0.832536
v 0.846465 0.425888 -0.000764
v -0.006627 0.941601 -0.000597
v -0.221531 -0.614051 0.666088
v -0.164035 -0.857200 0.502093
v -0.075522 -0.949457 0.232560
v 0.185063 -0.903543 0.135518
v 0.418074 -0.838249 0.305179
v 0.609547 -0.657519 0.442856
v 0.535015 -0.506513 0.685028
v 0.246523 -0.504381 0.773266
v -0.035547 -0.478886 0.829733
v 0.817685 -0.506512 -0.298469
v 0.772289 -0.479261 -0.000780
v 0.780035 -0.481317 0.283576
v 0.204051 -0.975281 -0.149860
v 0.436021 -0.873757 -0.317286
v 0.597695 -0.645323 -0.435323
v -0.722067 -0.625656 -0.000764
v -0.525730 -0.850652 0.000000
v -0.243955 -0.921144 -0.000764
v -0.498317 -0.515810 0.736536
v -0.646184 -0.491157 0.464129
v -0.837111 -0.506510 0.239201
v -0.227589 -0.645323 -0.703479
v -0.155911 -0.794160 -0.468414
v -0.077607 -0.967950 -0.238853
v -0.854956 -0.515807 -0.245196
v -0.664814 -0.504380 -0.481071
v -0.469125 -0.481924 -0.688594
v -0.029341 -0.481318 -0.830435
v 0.269093 -0.539891 -0.831058
v 0.545575 -0.515810 -0.700252
v 0.981957 0.258393 0.151920
v 0.951058 -0.000000 0.309013
v 0.798230 -0.235092 0.410844
v 0.847918 -0.246361 -0.437138
v 0.932279 -0.001140 -0.304194
v 0.962545 0.251988 -0.149860
v 0.145945 0.246157 0.933931
v -0.004899 0.000203 0.951091
v -0.151063 -0.231825 0.892466
v 0.705068 -0.257743 0.700727
v 0.557869 -0.000601 0.773271
v 0.418067 0.242625 0.830241
v -0.842730 0.244917 0.432427
v -0.936069 0.000513 0.301697
v -0.924729 -0.237976 0.142391
v -0.432312 -0.245131 0.844698
v -0.587786 0.000000 0.809017
v -0.647635 0.237079 0.636959
v -0.658975 0.239263 -0.649659
v -0.564386 0.000203 -0.770831
v -0.411011 -0.235094 -0.808042
v -0.896515 -0.235091 -0.139805
v -0.891322 -0.000882 -0.290313
v -0.847690 0.246157 -0.433686
v 0.420579 0.246158 -0.845777
v 0.557869 -0.000601 -0.777184
v 0.636397 -0.235093 -0.637877
v -0.160506 -0.257743 -0.981500
v -0.005367 -0.000601 -0.960191
v 0.145945 0.246157 -0.935011
v 0.852923 0.516459 0.245668
v 0.688189 0.525736 0.499997
v 0.483971 0.502302 0.716565
v 0.029439 0.516462 0.888221
v -0.257257 0.503179 0.773266
v -0.502739 0.471529 0.636956
v -0.778500 0.478321 0.280259
v -0.818192 0.506454 -0.000098
v -0.795735 0.490973 -0.290698
v -0.526143 0.491800 -0.667303
v -0.262971 0.514722 -0.791811
v 0.023313 0.478322 -0.823343
v 0.474666 0.490974 -0.703480
v 0.623709 0.482387 -0.458064
v 0.797638 0.483935 -0.229597
v 0.068971 0.921551 0.226589
v 0.159671 0.832262 0.488406
v 0.211172 0.616425 0.669489
v 0.731053 0.643610 -0.000540
v 0.528762 0.855507 -0.001253
v 0.244943 0.951718 0.001322
v -0.200062 0.926921 0.139496
v -0.428664 0.855510 0.309830
v -0.609547 0.657519 0.442856
v -0.200062 0.926921 -0.143409
v -0.438053 0.874409 -0.317286
v -0.616621 0.665352 -0.444728
v 0.065286 0.886824 -0.219228
v 0.163053 0.855510 -0.504599
v 0.216713 0.626066 -0.682829
v 0.361800 0.894429 -0.262863
v 0.625761 0.707794 -0.258981
v 0.449715 0.727616 -0.530504
v -0.136896 0.879616 -0.415799
v -0.051584 0.696580 -0.661329
v -0.359052 0.716018 -0.580218
v -0.460543 0.919389 0.000236
v -0.632380 0.678122 -0.151082
v -0.629983 0.673922 0.149356
v -0.139615 0.899579 0.426917
v -0.352060 0.692789 0.561273
v -0.055147 0.688977 0.654288
v 0.370749 0.919390 0.270339
v 0.438650 0.707796 0.513617
v 0.641979 0.727614 0.263373
v 0.884524 0.284335 -0.436800
v 0.750038 -0.000882 -0.550279
v 0.633625 0.263293 -0.655821
v -0.137794 0.264252 -0.913290
v -0.301477 -0.000602 -0.913292
v -0.447215 0.276397 -0.850649
v -0.974317 0.284334 -0.166696
v -0.920265 0.001563 -0.000779
v -0.954052 0.277404 0.162294
v -0.423647 0.260645 0.794659
v -0.308107 0.000513 0.929661
v -0.138199 0.276397 0.951055
v 0.650244 0.270848 0.672559
v 0.793121 -0.001141 0.574413
v 0.820443 0.264249 0.405603
v 0.289240 0.000203 -0.906033
v 0.438656 -0.271931 -0.834844
v 0.127060 -0.265455 -0.913290
v -0.792099 -0.001140 -0.577311
v -0.619205 -0.251223 -0.630181
v -0.825211 -0.262886 -0.405611
v -0.832317 0.000326 0.604208
v -0.848772 -0.269822 0.415457
v -0.675806 -0.279095 0.691550
v 0.283761 -0.000882 0.884764
v 0.129302 -0.269823 0.929660
v 0.458517 -0.283684 0.874313
v 1.026526 0.000326 0.000236
v 0.920576 -0.269822 0.158355
v 0.972285 -0.283683 -0.166696
v 0.341326 -0.693991 -0.565187
v 0.126644 -0.851164 -0.405609
v 0.052229 -0.710074 -0.675677
v -0.460544 -0.743215 -0.539971
v -0.336585 -0.816458 -0.241187
v -0.642963 -0.729304 -0.265877
v -0.631932 -0.712818 0.259618
v -0.349282 -0.851164 0.249444
v -0.433899 -0.693990 0.501814
v 0.674821 -0.729305 -0.164798
v 0.670818 -0.723610 0.162458
v 0.431538 -0.874302 -0.000539
v 0.045349 -0.688571 0.654289
v 0.131924 -0.858087 0.408563
v 0.354978 -0.710074 0.574409
vn -0.0071 -0.9952 0.0976
vn 0.8219 -0.4038 0.4018
vn -0.1394 -0.4457 0.8843
vn -0.9249 -0.3801 0.0021
vn -0.3452 -0.4656 -0.8149
vn 0.7401 -0.3586 -0.5688
vn 0.3240 0.4598 0.8268
vn -0.7048 0.3979 0.5873
vn -0.7364 0.3794 -0.5601
vn 0.2250 0.4937 -0.8400
vn 0.8470 0.5196 -0.1121
vn -0.0159 0.9983 -0.0568
vn -0.1535 -0.7120 0.6852
vn -0.1736 -0.8230 0.5408
vn -0.0616 -0.9703 0.2341
vn 0.2335 -0.9471 0.2201
vn 0.3356 -0.8975 0.2862
vn 0.6298 -0.6465 0.4306
vn 0.4837 -0.5695 0.6646
vn 0.1593 -0.5804 0.7986
vn 0.0210 -0.5327 0.8460
vn 0.8055 -0.5259 -0.2733
vn 0.8527 -0.5166 0.0771
vn 0.8743 -0.4268 0.2310
vn 0.2123 -0.9708 -0.1120
vn 0.3910 -0.8454 -0.3639
vn 0.6073 -0.6277 -0.4869
vn -0.7795 -0.6253 0.0379
vn -0.4649 -0.8852 -0.0166
vn -0.3324 -0.9428 -0.0257
vn -0.5052 -0.5853 0.6342
vn -0.6831 -0.5558 0.4738
vn -0.8358 -0.5033 0.2195
vn -0.1753 -0.6944 -0.6979
vn -0.1450 -0.8795 -0.4533
vn -0.1993 -0.9186 -0.3411
vn -0.8801 -0.4316 -0.1978
vn -0.6961 -0.3894 -0.6032
vn -0.5826 -0.3697 -0.7239
vn -0.0033 -0.5205 -0.8539
vn 0.1959 -0.5259 -0.8277
vn 0.6136 -0.4690 -0.6353
vn 0.9360 0.3022 0.1806
vn 0.9064 -0.0687 0.4168
vn 0.8767 -0.2841 0.3883
vn 0.7880 -0.1864 -0.5868
vn 0.9085 -0.0153 -0.4175
vn 0.9297 0.3319 -0.1596
vn 0.2377 0.1319 0.9623
vn 0.0383 -0.0648 0.9972
vn -0.0949 -0.1839 0.9784
vn 0.7651 -0.1953 0.6136
vn 0.5281 0.1064 0.8425
vn 0.4198 0.1642 0.8927
vn -0.8037 0.3514 0.4802
vn -0.9795 -0.0290 0.1993
vn -0.9802 -0.1964 0.0255
vn -0.3761 -0.1665 0.9115
vn -0.5321 0.1033 0.8404
vn -0.6113 0.3861 0.6908
vn -0.7000 0.2360 -0.6740
vn -0.5965 -0.0955 -0.7969
vn -0.5809 -0.1919 -0.7910
vn -0.9841 -0.1356 -0.1145
vn -0.9619 -0.1063 -0.2519
vn -0.8372 0.2173 -0.5019
vn 0.4682 0.1968 -0.8614
vn 0.6357 -0.0099 -0.7718
vn 0.7286 -0.1485 -0.6687
vn -0.1481 -0.2048 -0.9675
vn 0.0352 0.0436 -0.9984
vn 0.1200 0.2266 -0.9666
vn 0.8453 0.4904 0.2122
vn 0.6910 0.4791 0.5412
vn 0.4187 0.5059 0.7542
vn 0.0589 0.5707 0.8191
vn -0.3795 0.5412 0.7504
vn -0.5358 0.4346 0.7239
vn -0.7832 0.5505 0.2891
vn -0.7614 0.6471 0.0392
vn -0.7794 0.5606 -0.2796
vn -0.5685 0.4625 -0.6804
vn -0.2012 0.5323 -0.8223
vn 0.0165 0.5234 -0.8519
vn 0.5541 0.4791 -0.6808
vn 0.6921 0.5129 -0.5079
vn 0.7790 0.5730 -0.2546
vn 0.0096 0.9844 0.1759
vn 0.1371 0.8092 0.5712
vn 0.2165 0.6953 0.6853
vn 0.7857 0.6127 -0.0858
vn 0.5511 0.8330 -0.0499
vn 0.0943 0.9937 -0.0600
vn -0.0823 0.9922 0.0934
vn -0.4474 0.8347 0.3212
vn -0.6530 0.5991 0.4633
vn -0.0199 0.9928 -0.1185
vn -0.4201 0.8568 -0.2990
vn -0.6729 0.6104 -0.4179
vn 0.0175 0.9843 -0.1755
vn 0.0982 0.8638 -0.4943
vn 0.1692 0.6238 -0.7631
vn 0.2917 0.9258 -0.2406
vn 0.7027 0.6368 -0.3173
vn 0.5119 0.6515 -0.5599
vn -0.0598 0.9222 -0.3819
vn -0.0323 0.6859 -0.7270
vn -0.2948 0.7039 -0.6462
vn -0.4748 0.8797 0.0260
vn -0.7421 0.6679 -0.0567
vn -0.7427 0.6626 0.0969
vn -0.1037 0.8945 0.4349
vn -0.3382 0.6563 0.6745
vn -0.0608 0.7317 0.6790
vn 0.2938 0.9118 0.2869
vn 0.3820 0.7104 0.5911
vn 0.6359 0.7250 0.2647
vn 0.7991 0.3123 -0.5138
vn 0.7469 -0.0363 -0.6639
vn 0.6815 0.2668 -0.6814
vn -0.1143 0.2609 -0.9586
vn -0.3479 0.0114 -0.9375
vn -0.4555 0.2343 -0.8588
vn -0.9636 0.2083 -0.1677
vn -0.9935 -0.0983 -0.0571
vn -0.9480 0.2626 0.1800
vn -0.4902 0.3421 0.8016
vn -0.2695 -0.0134 0.9629
vn -0.2086 0.2226 0.9523
vn 0.6838 0.2101 0.6988
vn 0.8197 0.0305 0.5720
vn 0.8252 0.2287 0.5165
vn 0.2979 -0.0261 -0.9543
vn 0.4763 -0.1393 -0.8682
vn 0.1720 -0.2080 -0.9629
vn -0.7965 -0.0665 -0.6009
vn -0.6567 -0.2750 -0.7023
vn -0.8597 -0.2010 -0.4695
vn -0.8118 0.0656 0.5803
vn -0.8578 -0.3283 0.3954
vn -0.6849 -0.3289 0.6502
vn 0.2879 0.0406 0.9568
vn 0.0577 -0.2399 0.9691
vn 0.3655 -0.2112 0.9065
vn 0.9993 -0.0369 -0.0043
vn 0.8815 -0.4053 0.2422
vn 0.9287 -0.3503 -0.1217
vn 0.2941 -0.7801 -0.5522
vn 0.0722 -0.8532 -0.5165
vn 0.0175 -0.7822 -0.6227
vn -0.3973 -0.7623 -0.5109
vn -0.3047 -0.9153 -0.2635
vn -0.5901 -0.7717 -0.2373
vn -0.6112 -0.7247 0.3182
vn -0.3674 -0.8943 0.2556
vn -0.4625 -0.7323 0.4997
vn 0.7276 -0.6788 -0.0990
vn 0.7314 -0.6695 0.1301
vn 0.3944 -0.9145 0.0905
vn 0.0421 -0.6916 0.7211
vn 0.1687 -0.8973 0.4078
vn 0.2635 -0.7476 0.6097
vt 0.181819 0.000000
vt 0.204546 0.039365
vt 0.159092 0.039365
vt 0.272728 0.157461
vt 0.295455 0.118096
vt 0.318182 0.157461
vt 0.909091 0.000000
vt 0.931818 0.039365
vt 0.886364 0.039365
vt 0.727273 0.000000
vt 0.750000 0.039365
vt 0.704546 0.039365
vt 0.545455 0.000000
vt 0.568182 0.039365
vt 0.522728 0.039365
vt 0.295455 0.196826
vt 0.090910 0.157461
vt 0.136364 0.157461
vt 0.113637 0.196826
vt 0.818182 0.157461
vt 0.863636 0.157461
vt 0.840909 0.196826
vt 0.636364 0.157461
vt 0.681818 0.157461
vt 0.659091 0.196826
vt 0.454546 0.157461
vt 0.500000 0.157461
vt 0.477273 0.196826
vt 0.250001 0.196826
vt 0.068182 0.196826
vt 0.795455 0.196826
vt 0.613637 0.196826
vt 0.431819 0.196826
vt 0.181819 0.314921
vt 0.227273 0.314921
vt 0.204546 0.354286
vt 0.000000 0.314921
vt 0.045455 0.314921
vt 0.022727 0.354286
vt 0.727273 0.314921
vt 0.772727 0.314921
vt 0.750000 0.354286
vt 0.545455 0.314921
vt 0.590909 0.314921
vt 0.568182 0.354286
vt 0.363637 0.314921
vt 0.409091 0.314921
vt 0.386364 0.354286
vt 0.431819 0.433017
vt 0.477273 0.433017
vt 0.454546 0.472382
vt 0.409091 0.393651
vt 0.454546 0.393651
vt 0.431819 0.354286
vt 0.500000 0.393651
vt 0.477273 0.354286
vt 0.522728 0.354286
vt 0.454546 0.314921
vt 0.500000 0.314921
vt 0.613637 0.433017
vt 0.659091 0.433017
vt 0.636364 0.472382
vt 0.590909 0.393651
vt 0.636364 0.393651
vt 0.613637 0.354286
vt 0.681818 0.393651
vt 0.659091 0.354286
vt 0.704546 0.354286
vt 0.636364 0.314921
vt 0.681818 0.314921
vt 0.795455 0.433017
vt 0.840909 0.433017
vt 0.818182 0.472382
vt 0.772727 0.393651
vt 0.818182 0.393651
vt 0.795455 0.354286
vt 0.863636 0.393651
vt 0.840909 0.354286
vt 0.886364 0.354286
vt 0.818182 0.314921
vt 0.863636 0.314921
vt 0.909091 0.314921
vt 0.068182 0.433017
vt 0.113637 0.433017
vt 0.090910 0.472382
vt 0.045455 0.393651
vt 0.090910 0.393651
vt 0.068182 0.354286
vt 0.136365 0.393651
vt 0.113637 0.354286
vt 0.159092 0.354286
vt 0.090909 0.314921
vt 0.136364 0.314921
vt 0.250001 0.433017
vt 0.295455 0.433017
vt 0.272728 0.472382
vt 0.227273 0.393651
vt 0.272728 0.393651
vt 0.250001 0.354286
vt 0.318182 0.393651
vt 0.295455 0.354286
vt 0.340910 0.354286
vt 0.272728 0.314921
vt 0.318182 0.314921
vt 0.386364 0.275556
vt 0.409091 0.236191
vt 0.431819 0.275556
vt 0.454546 0.236191
vt 0.477273 0.275556
vt 0.500000 0.236191
vt 0.522728 0.275556
vt 0.568182 0.275556
vt 0.590909 0.236191
vt 0.613637 0.275556
vt 0.636364 0.236191
vt 0.659091 0.275556
vt 0.681818 0.236191
vt 0.704546 0.275556
vt 0.750000 0.275556
vt 0.772727 0.236191
vt 0.795455 0.275556
vt 0.818182 0.236191
vt 0.840909 0.275556
vt 0.863636 0.236191
vt 0.886364 0.275556
vt 0.022727 0.275556
vt 0.045455 0.236191
vt 0.068182 0.275556
vt 0.090910 0.236191
vt 0.113637 0.275556
vt 0.136364 0.236191
vt 0.159092 0.275556
vt 0.204546 0.275556
vt 0.227273 0.236191
vt 0.250001 0.275556
vt 0.272728 0.236191
vt 0.295455 0.275556
vt 0.318182 0.236191
vt 0.340910 0.275556
vt 0.545455 0.236191
vt 0.522728 0.196826
vt 0.568182 0.196826
vt 0.545455 0.157461
vt 0.590909 0.157461
vt 0.727273 0.236191
vt 0.704546 0.196826
vt 0.750000 0.196826
vt 0.727273 0.157461
vt 0.772727 0.157461
vt 0.931818 0.275556
vt 0.909091 0.236191
vt 0.886364 0.196826
vt 0.954545 0.236191
vt 0.931818 0.196826
vt 0.977273 0.196826
vt 0.909091 0.157461
vt 0.954545 0.157461
vt 1.000000 0.157461
vt 0.181819 0.236191
vt 0.159092 0.196826
vt 0.204546 0.196826
vt 0.181819 0.157461
vt 0.227274 0.157461
vt 0.363637 0.236191
vt 0.340910 0.196826
vt 0.386364 0.196826
vt 0.363637 0.157461
vt 0.409092 0.157461
vt 0.477273 0.118096
vt 0.500000 0.078731
vt 0.522728 0.118096
vt 0.545455 0.078731
vt 0.568182 0.118096
vt 0.590909 0.078731
vt 0.613637 0.118096
vt 0.659091 0.118096
vt 0.681818 0.078731
vt 0.704546 0.118096
vt 0.727273 0.078731
vt 0.750000 0.118096
vt 0.772727 0.078731
vt 0.795455 0.118096
vt 0.840909 0.118096
vt 0.863636 0.078731
vt 0.886364 0.118096
vt 0.909091 0.078731
vt 0.931818 0.118096
vt 0.954545 0.078731
vt 0.977273 0.118096
vt 0.431819 0.118096
vt 0.386364 0.118096
vt 0.340910 0.118096
vt 0.409091 0.078731
vt 0.363637 0.078730
vt 0.386364 0.039365
vt 0.318182 0.078731
vt 0.340910 0.039365
vt 0.363637 0.000000
vt 0.113637 0.118096
vt 0.136365 0.078731
vt 0.159092 0.118096
vt 0.181819 0.078731
vt 0.204546 0.118096
vt 0.227273 0.078731
vt 0.250001 0.118096
s 1
usemtl Rock
f 1/1/1 16/2/16 15/3/15
f 2/4/2 18/5/18 24/6/24
f 1/7/1 15/8/15 30/9/30
f 1/10/1 30/11/30 36/12/36
f 1/13/1 36/14/36 25/15/25
f 2/4/2 24/6/24 45/16/45
f 3/17/3 21/18/21 51/19/51
f 4/20/4 33/21/33 57/22/57
f 5/23/5 39/24/39 63/25/63
f 6/26/6 42/27/42 69/28/69
f 2/4/2 45/16/45 52/29/52
f 3/17/3 51/19/51 58/30/58
f 4/20/4 57/22/57 64/31/64
f 5/23/5 63/25/63 70/32/70
f 6/26/6 69/28/69 46/33/46
f 7/34/7 75/35/75 90/36/90
f 8/37/8 78/38/78 96/39/96
f 9/40/9 81/41/81 99/42/99
f 10/43/10 84/44/84 102/45/102
f 11/46/11 87/47/87 91/48/91
f 93/49/93 100/50/100 12/51/12
f 92/52/92 103/53/103 93/49/93
f 91/48/91 104/54/104 92/52/92
f 93/49/93 103/53/103 100/50/100
f 103/53/103 101/55/101 100/50/100
f 92/52/92 104/54/104 103/53/103
f 104/54/104 105/56/105 103/53/103
f 103/53/103 105/56/105 101/55/101
f 105/56/105 102/57/102 101/55/101
f 91/48/91 87/47/87 104/54/104
f 87/47/87 86/58/86 104/54/104
f 104/54/104 86/58/86 105/56/105
f 86/58/86 85/59/85 105/56/105
f 105/56/105 85/59/85 102/57/102
f 85/59/85 10/43/10 102/57/102
f 100/60/100 97/61/97 12/62/12
f 101/63/101 106/64/106 100/60/100
f 102/45/102 107/65/107 101/63/101
f 100/60/100 106/64/106 97/61/97
f 106/64/106 98/66/98 97/61/97
f 101/63/101 107/65/107 106/64/106
f 107/65/107 108/67/108 106/64/106
f 106/64/106 108/67/108 98/66/98
f 108/67/108 99/68/99 98/66/98
f 102/45/102 84/44/84 107/65/107
f 84/44/84 83/69/83 107/65/107
f 107/65/107 83/69/83 108/67/108
f 83/69/83 82/70/82 108/67/108
f 108/67/108 82/70/82 99/68/99
f 82/70/82 9/40/9 99/68/99
f 97/71/97 94/72/94 12/73/12
f 98/74/98 109/75/109 97/71/97
f 99/42/99 110/76/110 98/74/98
f 97/71/97 109/75/109 94/72/94
f 109/75/109 95/77/95 94/72/94
f 98/74/98 110/76/110 109/75/109
f 110/76/110 111/78/111 109/75/109
f 109/75/109 111/78/111 95/77/95
f 111/78/111 96/79/96 95/77/95
f 99/42/99 81/41/81 110/76/110
f 81/41/81 80/80/80 110/76/110
f 110/76/110 80/80/80 111/78/111
f 80/80/80 79/81/79 111/78/111
f 111/78/111 79/81/79 96/79/96
f 79/81/79 8/82/8 96/79/96
f 94/83/94 88/84/88 12/85/12
f 95/86/95 112/87/112 94/83/94
f 96/39/96 113/88/113 95/86/95
f 94/83/94 112/87/112 88/84/88
f 112/87/112 89/89/89 88/84/88
f 95/86/95 113/88/113 112/87/112
f 113/88/113 114/90/114 112/87/112
f 112/87/112 114/90/114 89/89/89
f 114/90/114 90/91/90 89/89/89
f 96/39/96 78/38/78 113/88/113
f 78/38/78 77/92/77 113/88/113
f 113/88/113 77/92/77 114/90/114
f 77/92/77 76/93/76 114/90/114
f 114/90/114 76/93/76 90/91/90
f 76/93/76 7/34/7 90/91/90
f 88/94/88 93/95/93 12/96/12
f 89/97/89 115/98/115 88/94/88
f 90/36/90 116/99/116 89/97/89
f 88/94/88 115/98/115 93/95/93
f 115/98/115 92/100/92 93/95/93
f 89/97/89 116/99/116 115/98/115
f 116/99/116 117/101/117 115/98/115
f 115/98/115 117/101/117 92/100/92
f 117/101/117 91/102/91 92/100/92
f 90/36/90 75/35/75 116/99/116
f 75/35/75 74/103/74 116/99/116
f 116/99/116 74/103/74 117/101/117
f 74/103/74 73/104/73 117/101/117
f 117/101/117 73/104/73 91/102/91
f 73/104/73 11/46/11 91/102/91
f 48/105/48 87/47/87 11/46/11
f 47/106/47 118/107/118 48/105/48
f 46/33/46 119/108/119 47/106/47
f 48/105/48 118/107/118 87/47/87
f 118/107/118 86/58/86 87/47/87
f 47/106/47 119/108/119 118/107/118
f 119/108/119 120/109/120 118/107/118
f 118/107/118 120/109/120 86/58/86
f 120/109/120 85/59/85 86/58/86
f 46/33/46 69/28/69 119/108/119
f 69/28/69 68/110/68 119/108/119
f 119/108/119 68/110/68 120/109/120
f 68/110/68 67/111/67 120/109/120
f 120/109/120 67/111/67 85/59/85
f 67/111/67 10/43/10 85/59/85
f 72/112/72 84/44/84 10/43/10
f 71/113/71 121/114/121 72/112/72
f 70/32/70 122/115/122 71/113/71
f 72/112/72 121/114/121 84/44/84
f 121/114/121 83/69/83 84/44/84
f 71/113/71 122/115/122 121/114/121
f 122/115/122 123/116/123 121/114/121
f 121/114/121 123/116/123 83/69/83
f 123/116/123 82/70/82 83/69/83
f 70/32/70 63/25/63 122/115/122
f 63/25/63 62/117/62 122/115/122
f 122/115/122 62/117/62 123/116/123
f 62/117/62 61/118/61 123/116/123
f 123/116/123 61/118/61 82/70/82
f 61/118/61 9/40/9 82/70/82
f 66/119/66 81/41/81 9/40/9
f 65/120/65 124/121/124 66/119/66
f 64/31/64 125/122/125 65/120/65
f 66/119/66 124/121/124 81/41/81
f 124/121/124 80/80/80 81/41/81
f 65/120/65 125/122/125 124/121/124
f 125/122/125 126/123/126 124/121/124
f 124/121/124 126/123/126 80/80/80
f 126/123/126 79/81/79 80/80/80
f 64/31/64 57/22/57 125/122/125
f 57/22/57 56/124/56 125/122/125
f 125/122/125 56/124/56 126/123/126
f 56/124/56 55/125/55 126/123/126
f 126/123/126 55/125/55 79/81/79
f 55/125/55 8/82/8 79/81/79
f 60/126/60 78/38/78 8/37/8
f 59/127/59 127/128/127 60/126/60
f 58/30/58 128/129/128 59/127/59
f 60/126/60 127/128/127 78/38/78
f 127/128/127 77/92/77 78/38/78
f 59/127/59 128/129/128 127/128/127
f 128/129/128 129/130/129 127/128/127
f 127/128/127 129/130/129 77/92/77
f 129/130/129 76/93/76 77/92/77
f 58/30/58 51/19/51 128/129/128
f 51/19/51 50/131/50 128/129/128
f 128/129/128 50/131/50 129/130/129
f 50/131/50 49/132/49 129/130/129
f 129/130/129 49/132/49 76/93/76
f 49/132/49 7/34/7 76/93/76
f 54/133/54 75/35/75 7/34/7
f 53/134/53 130/135/130 54/133/54
f 52/29/52 131/136/131 53/134/53
f 54/133/54 130/135/130 75/35/75
f 130/135/130 74/103/74 75/35/75
f 53/134/53 131/136/131 130/135/130
f 131/136/131 132/137/132 130/135/130
f 130/135/130 132/137/132 74/103/74
f 132/137/132 73/104/73 74/103/74
f 52/29/52 45/16/45 131/136/131
f 45/16/45 44/138/44 131/136/131
f 131/136/131 44/138/44 132/137/132
f 44/138/44 43/139/43 132/137/132
f 132/137/132 43/139/43 73/104/73
f 43/139/43 11/46/11 73/104/73
f 67/111/67 72/112/72 10/43/10
f 68/110/68 133/140/133 67/111/67
f 69/28/69 134/141/134 68/110/68
f 67/111/67 133/140/133 72/112/72
f 133/140/133 71/113/71 72/112/72
f 68/110/68 134/141/134 133/140/133
f 134/141/134 135/142/135 133/140/133
f 133/140/133 135/142/135 71/113/71
f 135/142/135 70/32/70 71/113/71
f 69/28/69 42/27/42 134/141/134
f 42/27/42 41/143/41 134/141/134
f 134/141/134 41/143/41 135/142/135
f 41/143/41 40/144/40 135/142/135
f 135/142/135 40/144/40 70/32/70
f 40/144/40 5/23/5 70/32/70
f 61/118/61 66/119/66 9/40/9
f 62/117/62 136/145/136 61/118/61
f 63/25/63 137/146/137 62/117/62
f 61/118/61 136/145/136 66/119/66
f 136/145/136 65/120/65 66/119/66
f 62/117/62 137/146/137 136/145/136
f 137/146/137 138/147/138 136/145/136
f 136/145/136 138/147/138 65/120/65
f 138/147/138 64/31/64 65/120/65
f 63/25/63 39/24/39 137/146/137
f 39/24/39 38/148/38 137/146/137
f 137/146/137 38/148/38 138/147/138
f 38/148/38 37/149/37 138/147/138
f 138/147/138 37/149/37 64/31/64
f 37/149/37 4/20/4 64/31/64
f 55/125/55 60/150/60 8/82/8
f 56/124/56 139/151/139 55/125/55
f 57/22/57 140/152/140 56/124/56
f 55/125/55 139/151/139 60/150/60
f 139/151/139 59/153/59 60/150/60
f 56/124/56 140/152/140 139/151/139
f 140/152/140 141/154/141 139/151/139
f 139/151/139 141/154/141 59/153/59
f 141/154/141 58/155/58 59/153/59
f 57/22/57 33/21/33 140/152/140
f 33/21/33 32/156/32 140/152/140
f 140/152/140 32/156/32 141/154/141
f 32/156/32 31/157/31 141/154/141
f 141/154/141 31/157/31 58/155/58
f 31/157/31 3/158/3 58/155/58
f 49/132/49 54/133/54 7/34/7
f 50/131/50 142/159/142 49/132/49
f 51/19/51 143/160/143 50/131/50
f 49/132/49 142/159/142 54/133/54
f 142/159/142 53/134/53 54/133/54
f 50/131/50 143/160/143 142/159/142
f 143/160/143 144/161/144 142/159/142
f 142/159/142 144/161/144 53/134/53
f 144/161/144 52/29/52 53/134/53
f 51/19/51 21/18/21 143/160/143
f 21/18/21 20/162/20 143/160/143
f 143/160/143 20/162/20 144/161/144
f 20/162/20 19/163/19 144/161/144
f 144/161/144 19/163/19 52/29/52
f 19/163/19 2/4/2 52/29/52
f 43/139/43 48/105/48 11/46/11
f 44/138/44 145/164/145 43/139/43
f 45/16/45 146/165/146 44/138/44
f 43/139/43 145/164/145 48/105/48
f 145/164/145 47/106/47 48/105/48
f 44/138/44 146/165/146 145/164/145
f 146/165/146 147/166/147 145/164/145
f 145/164/145 147/166/147 47/106/47
f 147/166/147 46/33/46 47/106/47
f 45/16/45 24/6/24 146/165/146
f 24/6/24 23/167/23 146/165/146
f 146/165/146 23/167/23 147/166/147
f 23/167/23 22/168/22 147/166/147
f 147/166/147 22/168/22 46/33/46
f 22/168/22 6/26/6 46/33/46
f 27/169/27 42/27/42 6/26/6
f 26/170/26 148/171/148 27/169/27
f 25/15/25 149/172/149 26/170/26
f 27/169/27 148/171/148 42/27/42
f 148/171/148 41/143/41 42/27/42
f 26/170/26 149/172/149 148/171/148
f 149/172/149 150/173/150 148/171/148
f 148/171/148 150/173/150 41/143/41
f 150/173/150 40/144/40 41/143/41
f 25/15/25 36/14/36 149/172/149
f 36/14/36 35/174/35 149/172/149
f 149/172/149 35/174/35 150/173/150
f 35/174/35 34/175/34 150/173/150
f 150/173/150 34/175/34 40/144/40
f 34/175/34 5/23/5 40/144/40
f 34/176/34 39/24/39 5/23/5
f 35/177/35 151/178/151 34/176/34
f 36/12/36 152/179/152 35/177/35
f 34/176/34 151/178/151 39/24/39
f 151/178/151 38/148/38 39/24/39
f 35/177/35 152/179/152 151/178/151
f 152/179/152 153/180/153 151/178/151
f 151/178/151 153/180/153 38/148/38
f 153/180/153 37/149/37 38/148/38
f 36/12/36 30/11/30 152/179/152
f 30/11/30 29/181/29 152/179/152
f 152/179/152 29/181/29 153/180/153
f 29/181/29 28/182/28 153/180/153
f 153/180/153 28/182/28 37/149/37
f 28/182/28 4/20/4 37/149/37
f 28/183/28 33/21/33 4/20/4
f 29/184/29 154/185/154 28/183/28
f 30/9/30 155/186/155 29/184/29
f 28/183/28 154/185/154 33/21/33
f 154/185/154 32/156/32 33/21/33
f 29/184/29 155/186/155 154/185/154
f 155/186/155 156/187/156 154/185/154
f 154/185/154 156/187/156 32/156/32
f 156/187/156 31/157/31 32/156/32
f 30/9/30 15/8/15 155/186/155
f 15/8/15 14/188/14 155/186/155
f 155/186/155 14/188/14 156/187/156
f 14/188/14 13/189/13 156/187/156
f 156/187/156 13/189/13 31/157/31
f 13/189/13 3/158/3 31/157/31
f 22/168/22 27/190/27 6/26/6
f 23/167/23 157/191/157 22/168/22
f 24/6/24 158/192/158 23/167/23
f 22/168/22 157/191/157 27/190/27
f 157/191/157 26/193/26 27/190/27
f 23/167/23 158/192/158 157/191/157
f 158/192/158 159/194/159 157/191/157
f 157/191/157 159/194/159 26/193/26
f 159/194/159 25/195/25 26/193/26
f 24/6/24 18/5/18 158/192/158
f 18/5/18 17/196/17 158/192/158
f 158/192/158 17/196/17 159/194/159
f 17/196/17 16/197/16 159/194/159
f 159/194/159 16/197/16 25/195/25
f 16/197/16 1/198/1 25/195/25
f 13/199/13 21/18/21 3/17/3
f 14/200/14 160/201/160 13/199/13
f 15/3/15 161/202/161 14/200/14
f 13/199/13 160/201/160 21/18/21
f 160/201/160 20/162/20 21/18/21
f 14/200/14 161/202/161 160/201/160
f 161/202/161 162/203/162 160/201/160
f 160/201/160 162/203/162 20/162/20
f 162/203/162 19/163/19 20/162/20
f 15/3/15 16/2/16 161/202/161
f 16/2/16 17/204/17 161/202/161
f 161/202/161 17/204/17 162/203/162
f 17/204/17 18/205/18 162/203/162
f 162/203/162 18/205/18 19/163/19
f 18/205/18 2/4/2 19/163/19
